HIERARCHY
ROOT Hips
{
	OFFSET -0.001795 -0.223333 0.028219
	CHANNELS 6 Xposition Yposition Zposition Zrotation Yrotation Xrotation 
	JOINT LeftUpLeg
	{
		OFFSET 0.069520 -0.091406 -0.006815
		CHANNELS 3 Zrotation Yrotation Xrotation
		JOINT LeftLeg
		{
			OFFSET 0.034277 -0.375199 -0.004496
			CHANNELS 3 Zrotation Yrotation Xrotation
			JOINT LeftFoot
			{
				OFFSET -0.013596 -0.397961 -0.043693
				CHANNELS 3 Zrotation Yrotation Xrotation
				JOINT LeftToe
				{
					OFFSET 0.026358 -0.055791 0.119288
					CHANNELS 3 Zrotation Yrotation Xrotation
					End Site
					{
						OFFSET 0.000000 0.000000 0.000000
					}
				}
			}
		}
	}
	JOINT RightUpLeg
	{
		OFFSET -0.067670 -0.090522 -0.004320
		CHANNELS 3 Zrotation Yrotation Xrotation
		JOINT RightLeg
		{
			OFFSET -0.038290 -0.382569 -0.008850
			CHANNELS 3 Zrotation Yrotation Xrotation
			JOINT RightFoot
			{
				OFFSET 0.015774 -0.398415 -0.042312
				CHANNELS 3 Zrotation Yrotation Xrotation
				JOINT RightToe
				{
					OFFSET -0.025372 -0.048144 0.123348
					CHANNELS 3 Zrotation Yrotation Xrotation
					End Site
					{
						OFFSET 0.000000 0.000000 0.000000
					}
				}
			}
		}
	}
	JOINT Spine
	{
		OFFSET -0.002533 0.108963 -0.026696
		CHANNELS 3 Zrotation Yrotation Xrotation
		JOINT Spine1
		{
			OFFSET 0.005487 0.135180 0.001092
			CHANNELS 3 Zrotation Yrotation Xrotation
			JOINT Spine2
			{
				OFFSET 0.001457 0.052922 0.025425
				CHANNELS 3 Zrotation Yrotation Xrotation
				JOINT Neck
				{
					OFFSET -0.002778 0.213870 -0.042857
					CHANNELS 3 Zrotation Yrotation Xrotation
					JOINT Head
					{
						OFFSET 0.005152 0.064970 0.051349
						CHANNELS 3 Zrotation Yrotation Xrotation
						End Site
						{
							OFFSET 0.000000 0.000000 0.000000
						}
					}
				}
				JOINT LeftShoulder
				{
					OFFSET 0.078845 0.121749 -0.034090
					CHANNELS 3 Zrotation Yrotation Xrotation
					JOINT LeftArm
					{
						OFFSET 0.090977 0.030469 -0.008868
						CHANNELS 3 Zrotation Yrotation Xrotation
						JOINT LeftForeArm
						{
							OFFSET 0.259612 -0.012772 -0.027456
							CHANNELS 3 Zrotation Yrotation Xrotation
							JOINT LeftHand
							{
								OFFSET 0.249234 0.008986 -0.001171
								CHANNELS 3 Zrotation Yrotation Xrotation
								End Site
								{
									OFFSET 0.000000 0.000000 0.000000
								}
							}
						}
					}
				}
				JOINT RightShoulder
				{
					OFFSET -0.081759 0.118833 -0.038615
					CHANNELS 3 Zrotation Yrotation Xrotation
					JOINT RightArm
					{
						OFFSET -0.096012 0.032551 -0.009143
						CHANNELS 3 Zrotation Yrotation Xrotation
						JOINT RightForeArm
						{
							OFFSET -0.253742 -0.013329 -0.021401
							CHANNELS 3 Zrotation Yrotation Xrotation
							JOINT RightHand
							{
								OFFSET -0.255298 0.007772 -0.005559
								CHANNELS 3 Zrotation Yrotation Xrotation
								End Site
								{
									OFFSET 0.000000 0.000000 0.000000
								}
							}
						}
					}
				}
			}
		}
	}
}
MOTION
Frames: 5
Frame Time: 0.050000
0.039345 0.996535 -0.091423 31.957711 -26.004299 -37.278920 -5.328530 15.303806 -118.415622 -12.840666 1.769710 101.509986 -21.592953 2.973428 71.150348 0.000000 0.000000 0.000000 -23.166147 6.162933 14.091433 0.912187 0.576905 10.230738 -2.030638 -14.856844 20.300418 0.000000 0.000000 0.000000 -9.867818 4.309124 28.168323 -12.653530 6.842708 -0.213593 -8.940610 9.476772 -3.105207 12.205835 -6.717530 -14.656751 0.000000 0.000000 0.000000 -19.539714 -22.093593 10.470471 -30.801839 -20.573021 1.348480 -12.511999 -62.798039 9.832243 0.000000 0.000000 0.000000 19.105965 21.381447 8.066973 50.926286 31.952825 9.678027 19.556374 62.015107 11.971787 0.000000 0.000000 0.000000 
0.039792 0.995234 -0.092915 32.293558 -25.609436 -37.301249 -4.960754 15.692175 -118.372596 -13.525951 2.819390 101.610062 -23.357443 1.906266 71.260990 0.000000 0.000000 0.000000 -23.351942 6.246995 14.245672 0.064707 0.657023 9.875432 -1.299218 -13.818238 19.888410 0.000000 0.000000 0.000000 -9.864356 4.440936 28.699388 -12.554505 6.835729 0.022633 -9.063477 9.001507 -3.343215 12.192619 -6.490704 -15.735912 0.000000 0.000000 0.000000 -19.603075 -22.775841 10.898003 -30.687599 -21.568299 1.590627 -10.866163 -60.760786 8.473153 0.000000 0.000000 0.000000 18.766999 21.703850 8.140716 50.681877 32.805741 10.052837 17.341523 60.711193 10.297981 0.000000 0.000000 0.000000 
0.040068 0.995378 -0.094127 31.951583 -25.547627 -36.995864 -5.176853 14.989515 -119.707232 -13.025303 1.586867 102.695505 -26.083754 0.426052 71.547760 0.000000 0.000000 0.000000 -23.069601 6.138667 14.400690 0.234263 0.640810 9.937578 -1.361927 -13.503610 18.714565 0.000000 0.000000 0.000000 -9.807109 4.603473 29.466485 -12.057222 6.559096 0.167101 -9.479316 8.744123 -4.305428 12.646259 -6.676174 -15.795751 0.000000 0.000000 0.000000 -19.439480 -22.969196 10.868396 -31.044355 -21.958751 1.805546 -9.545634 -59.327393 7.397213 0.000000 0.000000 0.000000 18.057220 21.936612 8.237792 50.871836 33.243969 10.350496 16.344991 60.199055 9.625742 0.000000 0.000000 0.000000 
0.040434 0.994524 -0.095335 32.070978 -25.152192 -36.405915 -4.614543 15.370621 -120.493493 -13.469530 1.791072 101.764146 -28.497800 -0.480347 72.680798 0.000000 0.000000 0.000000 -23.116935 6.154744 14.620502 0.543097 0.561179 9.587615 -2.358797 -13.934101 16.249088 0.000000 0.000000 0.000000 -10.141771 4.761659 29.836935 -12.087995 6.483037 -0.240377 -9.117090 8.849796 -4.720573 12.994909 -6.646439 -16.739681 0.000000 0.000000 0.000000 -19.295446 -23.268004 10.924205 -31.349657 -22.848287 2.106710 -7.981700 -57.743841 6.248396 0.000000 0.000000 0.000000 17.285995 21.821834 8.173242 51.389647 33.554468 10.628566 15.681150 59.885292 9.222870 0.000000 0.000000 0.000000 
0.040738 0.994622 -0.096509 32.203458 -25.156579 -36.267224 -4.237906 16.000868 -121.086601 -13.273706 1.082390 102.218063 -31.640762 -1.843193 73.662463 0.000000 0.000000 0.000000 -23.265031 6.297565 14.934914 0.345282 0.524841 8.927214 -1.691524 -12.721503 15.437260 0.000000 0.000000 0.000000 -10.454391 4.855707 29.869054 -12.416774 6.751186 -0.008318 -8.719405 8.625018 -5.259770 13.137803 -6.854431 -15.883621 0.000000 0.000000 0.000000 -19.676992 -23.006220 10.853107 -31.131791 -22.476410 2.037205 -6.103980 -57.514431 5.200947 0.000000 0.000000 0.000000 17.315237 21.687298 8.080829 51.034764 33.404963 10.534321 15.900530 59.663537 9.244695 0.000000 0.000000 0.000000 
